# xmcd CD database file
#
# Track frame offsets:
#	150
#	17947
#	34079
#	51952
#	68276
#	84820
#	103818
#	122359
#	137751
#	156756
#	181128
#	196272
#	209389
#	226749
#	238941
#	256378
#	272022
#
# Disc length: 3858 seconds
#
# Revision: 0
# Processed by: cddbd v1.5.2PL0 Copyright (c) Steve Scherf et al.
# Submitted via: CDex 1.70beta2
#
DISCID=dd0f1011
DTITLE=Garth Hewitt - Africa - Wings of love over Africa
DYEAR=2007
DGENRE=Country
TTITLE0=Wings of love over Africa
TTITLE1=Umthombo tree
TTITLE2=Full moon over Mozambique
TTITLE3=Isaiah 58
TTITLE4=A future and a hope
TTITLE5=Freedom tree (Original)
TTITLE6=Dawn down in Durban
TTITLE7=Zachariah the Zolu
TTITLE8=Rainbow over Kampala
TTITLE9=Chain of love (Original)
TTITLE10=Our silent eyes
TTITLE11=Thunder like a lion
TTITLE12=The sky that wouldn't weep
TTITLE13=That's why we're here
TTITLE14=A child is the future (Original)
TTITLE15=Namirembe
TTITLE16=Light a candle in the darkness (Original)
EXTD=YEAR: 2007
EXTT0=
EXTT1=
EXTT2=
EXTT3=
EXTT4=
EXTT5=
EXTT6=
EXTT7=
EXTT8=
EXTT9=
EXTT10=
EXTT11=
EXTT12=
EXTT13=
EXTT14=
EXTT15=
EXTT16=
PLAYORDER=
